<?xml version="1.0" encoding="utf-8"?>
<!-- Generator: Adobe Illustrator 22.1.0, SVG Export Plug-In . SVG Version: 6.00 Build 0)  -->
<svg version="1.1" id="Capa_1" xmlns="http://www.w3.org/2000/svg" xmlns:xlink="http://www.w3.org/1999/xlink" x="0px" y="0px"
	 viewBox="0 0 512 512" style="enable-background:new 0 0 512 512;" xml:space="preserve">
<style type="text/css">
	.st0{fill:#FFFFFF;stroke:#000000;stroke-miterlimit:10;}
</style>
<g>
	<g>
		<path class="st0" d="M504.5,381.7c-4.1,0-7.5,3.4-7.5,7.5v49.3c0,4.1-3.4,7.5-7.5,7.5h-467c-4.1,0-7.5-3.4-7.5-7.5V210.6
			c0-4.1-3.4-7.5-7.5-7.5S0,206.5,0,210.6v227.9C0,450.9,10.1,461,22.5,461h467c12.4,0,22.5-10.1,22.5-22.5v-49.3
			C512,385.1,508.6,381.7,504.5,381.7z"/>
	</g>
</g>
<g>
	<g>
		<path class="st0" d="M489.5,51h-467C10.1,51,0,61.1,0,73.5v59.9v47.2c0,4.1,3.4,7.5,7.5,7.5s7.5-3.4,7.5-7.5v-39.7h482v218.3
			c0,4.1,3.4,7.5,7.5,7.5c4.1,0,7.5-3.4,7.5-7.5V133.4V73.5C512,61.1,501.9,51,489.5,51z M497,125.9H15V73.5c0-4.1,3.4-7.5,7.5-7.5
			h467c4.1,0,7.5,3.4,7.5,7.5L497,125.9L497,125.9z"/>
	</g>
</g>
<g>
	<g>
		<path class="st0" d="M53,82.7c-6.9,0-12.6,5.6-12.6,12.6s5.6,12.6,12.6,12.6c6.9,0,12.6-5.6,12.6-12.6C65.6,88.3,60,82.7,53,82.7z
			"/>
	</g>
</g>
<g>
	<g>
		<path class="st0" d="M90.6,82.7c-6.9,0-12.6,5.6-12.6,12.6s5.6,12.6,12.6,12.6s12.6-5.6,12.6-12.6S97.6,82.7,90.6,82.7z"/>
	</g>
</g>
<g>
	<g>
		<path class="st0" d="M128.2,82.7c-6.9,0-12.6,5.6-12.6,12.6s5.6,12.6,12.6,12.6s12.6-5.6,12.6-12.6
			C140.8,88.3,135.2,82.7,128.2,82.7z"/>
	</g>
</g>
<g>
	<g>
		<path class="st0" d="M274,243c4.1,0,7.5-3.4,7.5-7.5v-43.7c0-4.1-3.4-7.5-7.5-7.5H58.1c-4.1,0-7.5,3.4-7.5,7.5v127.8v21.5
			c0,4.1,3.4,7.5,7.5,7.5h153.6H274c4.1,0,7.5-3.4,7.5-7.5v-23v-52.7c0-4.1-3.4-7.5-7.5-7.5s-7.5,3.4-7.5,7.5v36L205,246.7
			c-2.8-2.5-7.1-2.5-10,0l-39,34.8l-28.2-25.2c-2.8-2.5-7.1-2.5-10,0l-52.3,46.6V199.3h200.9v36.2C266.5,239.7,269.8,243,274,243z
			 M200,262.3l66.4,59.3v12.1h-51.9l-47.3-42.2L200,262.3z M122.8,271.9l57.2,51l12,10.7H65.6V323L122.8,271.9z"/>
	</g>
</g>
<g>
	<g>
		<path class="st0" d="M156.6,202.9c-13.5,0-24.6,11-24.6,24.6c0,13.5,11,24.6,24.6,24.6s24.6-11,24.6-24.6
			C181.2,214,170.2,202.9,156.6,202.9z M156.6,237.1c-5.3,0-9.6-4.3-9.6-9.6s4.3-9.6,9.6-9.6s9.6,4.3,9.6,9.6
			C166.2,232.8,161.9,237.1,156.6,237.1z"/>
	</g>
</g>
<g>
	<g>
		<path class="st0" d="M451.2,184.3H317.9c-4.1,0-7.5,3.4-7.5,7.5s3.4,7.5,7.5,7.5h133.4c4.1,0,7.5-3.4,7.5-7.5
			S455.4,184.3,451.2,184.3z"/>
	</g>
</g>
<g>
	<g>
		<path class="st0" d="M451.2,234.7H317.9c-4.1,0-7.5,3.4-7.5,7.5c0,4.1,3.4,7.5,7.5,7.5h133.4c4.1,0,7.5-3.4,7.5-7.5
			C458.7,238.1,455.4,234.7,451.2,234.7z"/>
	</g>
</g>
<g>
	<g>
		<path class="st0" d="M451.2,285H317.9c-4.1,0-7.5,3.4-7.5,7.5s3.4,7.5,7.5,7.5h133.4c4.1,0,7.5-3.4,7.5-7.5S455.4,285,451.2,285z"
			/>
	</g>
</g>
<g>
	<g>
		<path class="st0" d="M451.2,333.7H317.9c-4.1,0-7.5,3.4-7.5,7.5s3.4,7.5,7.5,7.5h133.4c4.1,0,7.5-3.4,7.5-7.5
			C458.7,337.1,455.4,333.7,451.2,333.7z"/>
	</g>
</g>
<g>
	<g>
		<path class="st0" d="M451.2,392.1H61.5c-4.1,0-7.5,3.4-7.5,7.5s3.4,7.5,7.5,7.5h389.7c4.1,0,7.5-3.4,7.5-7.5
			S455.4,392.1,451.2,392.1z"/>
	</g>
</g>
</svg>
