<?xml version="1.0" encoding="utf-8"?>
<!-- Generator: Adobe Illustrator 22.1.0, SVG Export Plug-In . SVG Version: 6.00 Build 0)  -->
<svg version="1.1" id="Layer_1" xmlns="http://www.w3.org/2000/svg" xmlns:xlink="http://www.w3.org/1999/xlink" x="0px" y="0px"
	 viewBox="0 0 512 512" style="enable-background:new 0 0 512 512;" xml:space="preserve">
<style type="text/css">
	.st0{fill:none;stroke:#000000;stroke-width:40;stroke-linecap:round;stroke-linejoin:round;stroke-miterlimit:10;}
	.st1{fill:none;stroke:#000000;stroke-width:40;stroke-linecap:round;stroke-miterlimit:10;}
</style>
<g>
	<g>
		<g>
			<path d="M996.4-35.4c-6.9-55.1-60.3-97-126-97c-13.6,0-26.9,1.8-39.7,5.5c-23.6-28-61.5-44.9-102.7-44.9
				c-70,0-126.9,48.9-126.9,108.9c0,2.9,0.2,5.9,0.4,8.9C564-34.5,540.6,0.6,540.6,39c0,60.1,56.9,108.9,126.9,108.9
				c11.3,0,20.4-9.1,20.4-20.3c0-11.2-9.1-20.3-20.4-20.3c-47.4,0-86-30.6-86-68.3c0-26.4,19.7-50.8,50.2-61.9
				c10.1-3.7,15.5-14.5,12.6-24.8C642.8-53,642-58,642-62.9c0-37.6,38.6-68.2,86-68.2c32.8,0,63.2,15.3,77.5,39
				c5.2,8.6,16,12.1,25.3,8.3c12.4-5.2,25.7-7.8,39.5-7.8c46.4,0,85,30,85.9,66.8c0.2,6,3,11.7,7.8,15.4
				c16.6,13,25.8,30.2,25.8,48.4c0,37.6-38.6,68.3-86,68.3c-15.5,0-30.9-3.4-44.3-9.9c-10.1-4.9-22.4-0.7-27.3,9.4
				c-4.9,10.1-0.7,22.3,9.5,27.2c19,9.2,40.5,14,62.1,14c70,0,126.9-48.9,126.9-108.9C1030.7,11.4,1018.3-15.3,996.4-35.4
				L996.4-35.4z"/>
			<path d="M810,223.1l-24.3,24V68.7c0-11.2-9.1-20.3-20.4-20.3s-20.4,9.1-20.4,20.3V247l-24.3-24c-8-7.9-20.9-7.9-28.9,0.1
				c-7.9,8-7.9,20.8,0.1,28.8l59.1,58.4c10.4,10.4,18.2,10.6,28.8,0l59.1-58.4c8-7.9,8-20.8,0.1-28.8
				C830.9,215.2,818,215.1,810,223.1L810,223.1z"/>
		</g>
	</g>
</g>
<polyline class="st0" points="74.5,95 229.9,250.5 73.9,406.5 "/>
<line class="st1" x1="190.1" y1="406.5" x2="451.9" y2="406.5"/>
</svg>
