<?xml version="1.0" encoding="utf-8"?>
<!-- Generator: Adobe Illustrator 22.1.0, SVG Export Plug-In . SVG Version: 6.00 Build 0)  -->
<svg version="1.1" id="Layer_1" xmlns="http://www.w3.org/2000/svg" xmlns:xlink="http://www.w3.org/1999/xlink" x="0px" y="0px"
	 viewBox="0 0 512 512" style="enable-background:new 0 0 512 512;" xml:space="preserve">
<style type="text/css">
	.st0{stroke:#000000;stroke-width:14;stroke-linecap:round;stroke-linejoin:round;stroke-miterlimit:10;}
</style>
<g>
	<g>
		<g>
			<path d="M256,42.7C256,42.7,256,42.7,256,42.7C256,42.7,256,42.7,256,42.7C256,42.7,256,42.7,256,42.7
				c-70.7,0-134.7,28.6-181,74.9c0,0,0,0-0.1,0c0,0,0,0,0,0.1C28.7,164,0.1,227.9,0,298.4c0,0.1,0,0.1,0,0.2c0,0.1,0,0.1,0,0.2
				c0.1,60.2,21,117.3,58.5,162.7c4.1,4.9,10.1,7.7,16.5,7.7h95.7h170.7H437c6.4,0,12.4-2.8,16.5-7.7
				c37.6-45.5,58.6-102.7,58.6-162.9C512,157.3,397.4,42.7,256,42.7z M197.8,426.7C197.8,426.7,197.7,426.6,197.8,426.7
				c7.3-12.8,21.1-21.3,36.9-21.3h42.7c15.8,0,29.5,8.5,36.9,21.3c0,0,0,0.1,0,0.1H197.8z M426.7,426.7H360c0,0,0,0,0,0
				c-9.5-36.8-42.9-64-82.6-64h-42.7c-39.8,0-73.2,27.2-82.6,64c0,0,0,0,0,0H85.3c0,0,0,0,0,0C62,395.7,47.6,359,43.7,320.1
				c0,0,0-0.1,0.1-0.1h62.3c11.6,0,21.5-9,21.9-20.6c0.4-12.1-9.3-22.1-21.3-22.1H43.8c0,0-0.1,0-0.1-0.1c4.3-42.9,21.2-82,47-113.6
				c0,0,0.1,0,0.1,0l13.9,13.9c8.2,8.2,21.6,8.8,30,0.9c8.9-8.3,9-22.2,0.5-30.7L121,133.5c0,0,0-0.1,0-0.1
				c31.6-25.8,70.7-42.8,113.6-47.1c0,0,0.1,0,0.1,0.1v62.3c0,11.6,9,21.5,20.6,21.9c12.1,0.4,22.1-9.3,22.1-21.3V86.5
				c0,0,0-0.1,0.1-0.1c42.9,4.3,82,21.2,113.6,47.1c0,0,0,0.1,0,0.1l-13.9,13.9c-8.2,8.2-8.8,21.6-0.9,30c8.3,8.9,22.2,9,30.7,0.5
				l14.3-14.3c0,0,0.1,0,0.1,0c25.8,31.6,42.8,70.7,47.1,113.6c0,0,0,0.1-0.1,0.1h-62.3c-11.6,0-21.5,9-21.9,20.6
				c-0.4,12.1,9.3,22.1,21.3,22.1h62.9c0,0,0.1,0,0.1,0.1C464.4,359,450,395.7,426.7,426.7C426.7,426.7,426.7,426.7,426.7,426.7z"/>
			<path d="M259.6,341.3"/>
		</g>
	</g>
</g>
<polygon class="st0" points="231.6,344.4 165.3,201.8 291.9,291.9 "/>
</svg>
