<?xml version="1.0" encoding="iso-8859-1"?>
<!-- Generator: Adobe Illustrator 16.0.0, SVG Export Plug-In . SVG Version: 6.00 Build 0)  -->
<!DOCTYPE svg PUBLIC "-//W3C//DTD SVG 1.1//EN" "http://www.w3.org/Graphics/SVG/1.1/DTD/svg11.dtd">
<svg version="1.1" id="Capa_1" xmlns="http://www.w3.org/2000/svg" xmlns:xlink="http://www.w3.org/1999/xlink" x="0px" y="0px"
	 width="91.07px" height="91.07px" viewBox="0 0 91.07 91.07" style="enable-background:new 0 0 91.07 91.07;" xml:space="preserve"
	>
<g>
	<g>
		<path d="M89.459,48.179l-6.656-6.655c-1.031-1.031-2.43-1.611-3.889-1.611s-2.857,0.58-3.891,1.611l-5.33,5.331V34.322
			c0-0.316-0.066-0.627-0.131-0.939C68.238,39.96,53.22,45.146,34.847,45.146c-18.374,0-33.392-5.186-34.717-11.764
			C0.067,33.696,0,34.006,0,34.322v16.279c0,6.578,13.702,11.983,31.264,12.639c0.268,0.625,0.647,1.213,1.157,1.723l4.685,4.684
			c-0.748,0.019-1.499,0.029-2.259,0.029c-18.374,0-33.392-5.188-34.717-11.764C0.067,58.222,0,58.535,0,58.851v16.278
			c0,7.021,15.602,12.707,34.847,12.707c6.877,0,13.283-0.729,18.685-1.981c0.867,0.541,1.867,0.846,2.906,0.846
			c1.459,0,2.857-0.578,3.889-1.611l2.281-2.279c4.114-1.975,6.685-4.401,7.041-7.043l19.811-19.811
			C91.607,53.81,91.607,50.328,89.459,48.179z M56.009,81.003L35.881,60.876l6.656-6.656l13.472,13.471l22.476-22.476l6.656,6.656
			L56.009,81.003z"/>
		<path d="M34.848,39.072c19.244,0,34.846-5.688,34.846-12.707V15.938c0-7.02-15.602-12.705-34.846-12.705
			c-19.245,0-34.847,5.686-34.847,12.705v10.426C0.001,33.385,15.603,39.072,34.848,39.072z"/>
	</g>
</g>
<g>
</g>
<g>
</g>
<g>
</g>
<g>
</g>
<g>
</g>
<g>
</g>
<g>
</g>
<g>
</g>
<g>
</g>
<g>
</g>
<g>
</g>
<g>
</g>
<g>
</g>
<g>
</g>
<g>
</g>
</svg>
