<?xml version="1.0" encoding="utf-8"?>
<!-- Generator: Adobe Illustrator 22.1.0, SVG Export Plug-In . SVG Version: 6.00 Build 0)  -->
<svg version="1.1" id="Capa_1" xmlns="http://www.w3.org/2000/svg" xmlns:xlink="http://www.w3.org/1999/xlink" x="0px" y="0px"
	 viewBox="0 0 512 512" style="enable-background:new 0 0 512 512;" xml:space="preserve">
<style type="text/css">
	.st0{fill:#FFFFFF;}
</style>
<g>
	<g>
		<path class="st0" d="M455.8,246.2c-4-1.2-8.2,1.1-9.4,5c-11.8,39.5-33.2,81.9-63.6,125.9c-1.1,1.6-1.5,3.5-1.2,5.4L399.3,497
			H275.1c-4.1,0-7.5,3.4-7.5,7.5c0,4.1,3.4,7.5,7.5,7.5H408c2.2,0,4.3-1,5.7-2.6c1.4-1.7,2.1-3.9,1.7-6l-18.6-120.1
			c30.4-44.4,51.9-87.4,63.9-127.7C462,251.6,459.8,247.4,455.8,246.2z"/>
	</g>
</g>
<g>
	<g>
		<path class="st0" d="M433.7,69.4c-18.5-22.3-42.6-39.8-71.6-51.9C334.8,6.1,303.8,0,272.5,0c-58.9,0-105,20.8-137.2,61.9
			c-26,33.2-36,70.9-41.4,91.2c-1.1,4-2,7.4-2.7,9.6c-6.4,19.1-37.1,93.5-50.1,124.6c-2.5,6-1.8,12.7,1.8,18.1
			c3.6,5.4,9.6,8.6,16.1,8.6h23.6c3.5,17.8,13.7,69,21.8,90.2c7.5,19.9,25.3,31.5,51.5,33.5c11,0.9,21.1-0.2,27.8-1.2l12.3,69.2
			c0.6,3.6,3.8,6.2,7.4,6.2h41.8c4.1,0,7.5-3.4,7.5-7.5s-3.4-7.5-7.5-7.5h-35.5l-12.5-70.4c-0.4-2-1.6-3.8-3.3-5
			c-1.7-1.1-3.9-1.5-5.9-1c-0.6,0.1-56.3,13.3-69.5-21.6c-9.1-24.1-22.1-93.1-22.2-93.8c-0.7-3.6-3.8-6.1-7.4-6.1H58.9
			c-2.1,0-3.2-1.3-3.6-1.9c-0.4-0.6-1.2-2.1-0.4-4c16.1-38.8,44.2-106.8,50.4-125.6c0.9-2.6,1.8-6.1,3-10.5
			c10.3-38.8,37.8-142,164.1-142c29.3,0,58.3,5.6,83.8,16.3C383,42.5,405.2,58.6,422.1,79c31.1,37.5,41.9,87.2,31.3,143.8
			c-0.8,4.1,1.9,8,6,8.8c4.1,0.8,8-1.9,8.8-6C479.6,164.4,467.7,110.4,433.7,69.4z"/>
	</g>
</g>
<g>
	<g>
		<path class="st0" d="M278.5,129.5c-53.6,0-97.1,43.7-97.1,97.5c0,18.9,5.4,37.3,15.7,53.2c0,0,0,0,0,0l0.1,0.1
			c0.3,0.4,0.5,0.8,0.7,1.1c1.6,2.5,3.2,5,4.8,7.4c2.2,3.5,6.9,4.5,10.4,2.3c3.5-2.2,4.5-6.9,2.3-10.4c-1.6-2.5-3.2-5-4.9-7.6
			c-0.2-0.3-0.4-0.6-0.6-1l-0.1-0.2c0,0,0,0,0-0.1c-8.7-13.4-13.2-28.9-13.2-44.9c0-45.5,36.8-82.4,82.1-82.4s82.1,37,82.1,82.4
			c0,16-4.6,31.6-13.3,45l-0.1,0.1c-0.2,0.3-0.4,0.7-0.7,1.1c-25.2,38.4-37.5,65.6-41.9,76.3h-9.9c0.2-8.8,0.7-24.3,2.2-40.2
			c0.4-4.9,0.9-9.3,1.4-13.4c13.2-3.5,22.6-10.7,26.6-20.7c3.7-9.3,1.5-19.5-5.5-26.1c-7.3-6.8-13.7-5.5-16.9-4.1
			c-9.5,4.1-14.5,19.6-17.5,38c-2,0.2-4,0.2-6.2,0.2c-2.4,0-4.6-0.1-6.6-0.3c-3-18.3-8-33.8-17.5-37.9c-3.2-1.4-9.6-2.7-16.9,4.1
			c-7,6.5-9.2,16.7-5.5,26c3.9,10,13.4,17.2,26.6,20.7c0.5,4,1,8.4,1.4,13.3c1.4,15.9,2,31.4,2.2,40.2h-9.8
			c-3-7.2-9.6-22.1-21.4-42.8c-2-3.6-6.6-4.9-10.2-2.8c-3.6,2-4.9,6.6-2.8,10.2c13.8,24.4,20.3,40.4,21.9,44.4v16H238v0
			c-4.1,0-7.5,3.4-7.5,7.5s3.4,7.5,7.5,7.5h2.5c3.5,17.7,19.2,31.1,37.9,31.1c18.7,0,34.4-13.4,37.9-31.1h2.5c4.1,0,7.5-3.4,7.5-7.5
			s-3.4-7.5-7.5-7.5h-1.8v-16c2.2-5.6,13.9-34.5,41.8-77c0.3-0.4,0.5-0.8,0.8-1.2l0.1-0.1c0,0,0-0.1,0.1-0.1
			c10.3-15.8,15.7-34.2,15.7-53.1C375.6,173.2,332,129.5,278.5,129.5z M308,259.3c0.3,0.2,0.7,0.5,1.1,0.9c2.6,2.4,3.2,6,1.8,9.6
			c-1.3,3.3-4.5,6.8-9.9,9.3C303.9,264.9,306.8,260.6,308,259.3z M246.1,269.7c-1.4-3.6-0.7-7.1,1.8-9.5c0.5-0.4,0.9-0.7,1.1-0.9
			c1.1,1.2,4.1,5.6,7,19.8C250.5,276.5,247.4,273.1,246.1,269.7z M282.9,298.3c-0.3,2.8-0.6,5.7-0.9,8.5
			c-1.6,17.1-2.2,33.6-2.4,42.8h-2.4c-0.2-9.2-0.8-25.7-2.4-42.8c-0.3-2.8-0.5-5.7-0.9-8.5C277,298.4,280,298.4,282.9,298.3z
			 M278.5,405.6c-10.4,0-19.2-6.7-22.4-16.1h44.8C297.7,398.9,288.9,405.6,278.5,405.6z M302.1,374.5h-47.3v-10h47.3V374.5z"/>
	</g>
</g>
<g>
	<g>
		<path class="st0" d="M278.5,58.4c-4.1,0-7.5,3.4-7.5,7.5v30.3c0,4.2,3.4,7.5,7.5,7.5c4.1,0,7.5-3.4,7.5-7.5V65.9
			C286,61.8,282.6,58.4,278.5,58.4z"/>
	</g>
</g>
<g>
	<g>
		<path class="st0" d="M348.5,73.4c-4-1.2-8.2,1-9.4,4.9l-9.1,28.9c-1.2,4,1,8.2,4.9,9.4c0.7,0.2,1.5,0.3,2.3,0.3
			c3.2,0,6.2-2.1,7.2-5.3l9.1-28.9C354.6,78.9,352.4,74.7,348.5,73.4z"/>
	</g>
</g>
<g>
	<g>
		<path class="st0" d="M406.7,116.3c-2.5-3.3-7.3-3.9-10.5-1.3l-23.9,18.6c-3.3,2.5-3.9,7.3-1.3,10.5c1.5,1.9,3.7,2.9,5.9,2.9
			c1.6,0,3.2-0.5,4.6-1.6l23.9-18.6C408.7,124.3,409.3,119.6,406.7,116.3z"/>
	</g>
</g>
<g>
	<g>
		<path class="st0" d="M227,107.3l-9.1-28.9c-1.2-4-5.5-6.2-9.4-4.9c-4,1.2-6.2,5.5-4.9,9.4l9.1,28.9c1,3.2,4,5.3,7.2,5.3
			c0.7,0,1.5-0.1,2.3-0.3C226.1,115.5,228.3,111.2,227,107.3z"/>
	</g>
</g>
<g>
	<g>
		<path class="st0" d="M184.7,133.5L160.8,115c-3.3-2.5-8-1.9-10.5,1.3c-2.5,3.3-1.9,8,1.3,10.5l23.9,18.6c1.4,1.1,3,1.6,4.6,1.6
			c2.2,0,4.5-1,5.9-2.9C188.6,140.8,188,136.1,184.7,133.5z"/>
	</g>
</g>
</svg>
