<?xml version="1.0" encoding="iso-8859-1"?>
<!-- Generator: Adobe Illustrator 19.0.0, SVG Export Plug-In . SVG Version: 6.00 Build 0)  -->
<svg version="1.1" id="Capa_1" xmlns="http://www.w3.org/2000/svg" xmlns:xlink="http://www.w3.org/1999/xlink" x="0px" y="0px"
	 viewBox="0 0 512 512" style="enable-background:new 0 0 512 512;" xml:space="preserve">
<g>
	<g>
		<path d="M504.513,121.034h-80.357c0-4.136-3.351-7.487-7.487-7.487c-4.136,0-7.487,3.351-7.487,7.487H74.453
			c-4.135,0-7.487,3.351-7.487,7.487v226.593c-4.135,0-7.487,3.351-7.487,7.487c0,4.136,3.352,7.487,7.487,7.487v85.732
			c0,4.136,3.352,7.487,7.487,7.487h430.06c4.135,0,7.487-3.351,7.487-7.487v-327.3C512,124.385,508.648,121.034,504.513,121.034z
			 M497.026,448.334H81.94V136.008h415.086V448.334z"/>
	</g>
</g>
<g>
	<g>
		<path d="M468.889,314.632c-4.136,0-7.487,3.352-7.487,7.487v39.27l-110.42-98.526c-2.839-2.535-7.13-2.535-9.969,0l-68.149,60.807
			l-50.19-44.783c-2.84-2.535-7.13-2.535-9.969,0l-42.188,37.644c-3.086,2.753-3.355,7.485-0.602,10.571
			c2.753,3.087,7.487,3.355,10.571,0.602l37.204-33.196l128.099,114.299H117.564V383.85l40.223-35.89
			c3.086-2.752,3.355-7.485,0.602-10.571c-2.753-3.087-7.486-3.354-10.571-0.602l-30.254,26.995V231.442
			c0-4.135-3.352-7.487-7.487-7.487s-7.487,3.352-7.487,7.487v149.055v35.799c0,4.136,3.352,7.487,7.487,7.487H468.89
			c4.136,0,7.487-3.351,7.487-7.487v-38.192v-55.985C476.376,317.984,473.025,314.632,468.889,314.632z M461.402,408.809H368.28
			l-84.171-75.103l61.888-55.22l115.405,102.972V408.809z"/>
	</g>
</g>
<g>
	<g>
		<path d="M468.89,160.559H110.077c-4.136,0-7.487,3.351-7.487,7.487v33.444c0,4.136,3.352,7.487,7.487,7.487
			s7.487-3.351,7.487-7.487v-25.957h343.839v116.638c0,4.136,3.351,7.487,7.487,7.487s7.487-3.351,7.487-7.487V168.046
			C476.377,163.91,473.026,160.559,468.89,160.559z"/>
	</g>
</g>
<g>
	<g>
		<path d="M416.669,78.802c-4.136,0-7.487,3.351-7.487,7.487v12.12c0,4.136,3.351,7.487,7.487,7.487
			c4.136,0,7.487-3.351,7.487-7.487V86.29C424.156,82.154,420.804,78.802,416.669,78.802z"/>
	</g>
</g>
<g>
	<g>
		<path d="M416.669,48.692h-7.487c-4.136,0-7.487,3.351-7.487,7.487c0,4.136,3.351,7.487,7.487,7.487
			c0,4.136,3.351,7.487,7.487,7.487c4.136,0,7.487-3.351,7.487-7.487v-7.487C424.156,52.043,420.805,48.692,416.669,48.692z"/>
	</g>
</g>
<g>
	<g>
		<path d="M219.203,48.692h-14.248c-4.135,0-7.487,3.351-7.487,7.487c0,4.136,3.352,7.487,7.487,7.487h14.248
			c4.135,0,7.487-3.351,7.487-7.487C226.69,52.043,223.338,48.692,219.203,48.692z"/>
	</g>
</g>
<g>
	<g>
		<path d="M96.666,48.692H82.417c-4.135,0-7.487,3.351-7.487,7.487c0,4.136,3.352,7.487,7.487,7.487h14.248
			c4.135,0,7.487-3.351,7.487-7.487C104.153,52.043,100.801,48.692,96.666,48.692z"/>
	</g>
</g>
<g>
	<g>
		<path d="M178.357,48.692h-14.248c-4.135,0-7.487,3.351-7.487,7.487c0,4.136,3.351,7.487,7.487,7.487h14.248
			c4.135,0,7.487-3.351,7.487-7.487C185.844,52.043,182.492,48.692,178.357,48.692z"/>
	</g>
</g>
<g>
	<g>
		<path d="M137.511,48.692h-14.249c-4.135,0-7.487,3.351-7.487,7.487c0,4.136,3.352,7.487,7.487,7.487h14.249
			c4.135,0,7.487-3.351,7.487-7.487C144.999,52.043,141.646,48.692,137.511,48.692z"/>
	</g>
</g>
<g>
	<g>
		<path d="M382.585,48.692h-14.248c-4.136,0-7.487,3.351-7.487,7.487c0,4.136,3.351,7.487,7.487,7.487h14.248
			c4.136,0,7.487-3.351,7.487-7.487C390.072,52.043,386.721,48.692,382.585,48.692z"/>
	</g>
</g>
<g>
	<g>
		<path d="M300.893,48.692h-14.247c-4.136,0-7.487,3.351-7.487,7.487c0,4.136,3.351,7.487,7.487,7.487h14.247
			c4.136,0,7.487-3.351,7.487-7.487C308.38,52.043,305.029,48.692,300.893,48.692z"/>
	</g>
</g>
<g>
	<g>
		<path d="M341.739,48.692h-14.247c-4.136,0-7.487,3.351-7.487,7.487c0,4.136,3.351,7.487,7.487,7.487h14.247
			c4.136,0,7.487-3.351,7.487-7.487C349.226,52.043,345.875,48.692,341.739,48.692z"/>
	</g>
</g>
<g>
	<g>
		<path d="M260.048,48.692H245.8c-4.135,0-7.487,3.351-7.487,7.487c0,4.136,3.352,7.487,7.487,7.487h14.247
			c4.136,0,7.487-3.351,7.487-7.487C267.535,52.043,264.183,48.692,260.048,48.692z"/>
	</g>
</g>
<g>
	<g>
		<path d="M55.82,48.692H41.571c-4.135,0-7.487,3.351-7.487,7.487c0,4.136,3.352,7.487,7.487,7.487H55.82
			c4.135,0,7.487-3.351,7.487-7.487C63.307,52.043,59.955,48.692,55.82,48.692z"/>
	</g>
</g>
<g>
	<g>
		<path d="M14.974,48.692H7.487C3.352,48.692,0,52.043,0,56.179v7.487c0,4.136,3.352,7.487,7.487,7.487s7.487-3.351,7.487-7.487
			c4.135,0,7.487-3.351,7.487-7.487C22.461,52.043,19.109,48.692,14.974,48.692z"/>
	</g>
</g>
<g>
	<g>
		<path d="M7.487,303.808c-4.135,0-7.487,3.351-7.487,7.487v15.286c0,4.136,3.352,7.487,7.487,7.487s7.487-3.351,7.487-7.487
			v-15.286C14.974,307.159,11.622,303.808,7.487,303.808z"/>
	</g>
</g>
<g>
	<g>
		<path d="M7.487,84.713C3.352,84.713,0,88.064,0,92.2v15.287c0,4.135,3.352,7.486,7.487,7.486s7.487-3.351,7.487-7.487V92.2
			C14.974,88.064,11.622,84.713,7.487,84.713z"/>
	</g>
</g>
<g>
	<g>
		<path d="M7.487,259.991c-4.135,0-7.487,3.351-7.487,7.487v15.285c0,4.135,3.352,7.487,7.487,7.487s7.487-3.351,7.487-7.487
			v-15.285C14.974,263.342,11.622,259.991,7.487,259.991z"/>
	</g>
</g>
<g>
	<g>
		<path d="M7.487,172.351c-4.135,0-7.487,3.351-7.487,7.487v15.286c0,4.135,3.352,7.487,7.487,7.487s7.487-3.351,7.487-7.487
			v-15.286C14.974,175.703,11.622,172.351,7.487,172.351z"/>
	</g>
</g>
<g>
	<g>
		<path d="M7.487,128.532c-4.135,0-7.487,3.351-7.487,7.487v15.286c0,4.136,3.352,7.487,7.487,7.487s7.487-3.351,7.487-7.487
			v-15.286C14.974,131.883,11.622,128.532,7.487,128.532z"/>
	</g>
</g>
<g>
	<g>
		<path d="M7.487,216.171c-4.135,0-7.487,3.351-7.487,7.487v15.285c0,4.136,3.352,7.487,7.487,7.487s7.487-3.351,7.487-7.487
			v-15.285C14.974,219.522,11.622,216.171,7.487,216.171z"/>
	</g>
</g>
<g>
	<g>
		<path d="M14.974,355.114c0-4.136-3.352-7.487-7.487-7.487S0,350.978,0,355.114v7.487c0,4.136,3.352,7.487,7.487,7.487h7.487
			c4.135,0,7.487-3.351,7.487-7.487C22.461,358.466,19.109,355.114,14.974,355.114z"/>
	</g>
</g>
<g>
	<g>
		<path d="M46.462,355.114H35.478c-4.135,0-7.487,3.351-7.487,7.487c0,4.136,3.352,7.487,7.487,7.487h10.984
			c4.135,0,7.487-3.351,7.487-7.487C53.949,358.466,50.597,355.114,46.462,355.114z"/>
	</g>
</g>
<g>
	<g>
		<path d="M273.813,191.465c-19.777,0-35.867,16.089-35.867,35.866s16.09,35.867,35.867,35.867s35.866-16.089,35.866-35.867
			C309.679,207.554,293.59,191.465,273.813,191.465z M273.813,248.224c-11.52,0-20.893-9.373-20.893-20.893
			c0-11.52,9.373-20.892,20.893-20.892s20.892,9.372,20.892,20.892C294.705,238.851,285.333,248.224,273.813,248.224z"/>
	</g>
</g>
<g>
</g>
<g>
</g>
<g>
</g>
<g>
</g>
<g>
</g>
<g>
</g>
<g>
</g>
<g>
</g>
<g>
</g>
<g>
</g>
<g>
</g>
<g>
</g>
<g>
</g>
<g>
</g>
<g>
</g>
</svg>
