<?xml version="1.0" encoding="utf-8"?>
<!-- Generator: Adobe Illustrator 22.1.0, SVG Export Plug-In . SVG Version: 6.00 Build 0)  -->
<svg version="1.1" id="Capa_1" xmlns="http://www.w3.org/2000/svg" xmlns:xlink="http://www.w3.org/1999/xlink" x="0px" y="0px"
	 viewBox="0 0 512 512" style="enable-background:new 0 0 512 512;" xml:space="preserve">
<style type="text/css">
	.st0{fill:#FFFFFF;}
</style>
<g>
	<g>
		<path class="st0" d="M507.5,355.9l-108.1-46.5l19.5-8.3c3.8-1.6,5.6-6,4-9.8c-1.6-3.8-6-5.6-9.8-4l-35.6,15.2L256,354.1
			l-121.3-51.6c0,0,0,0,0,0l-108.1-46l105.2-45.2l121.3,51.6c0.9,0.4,1.9,0.6,2.9,0.6c1,0,2-0.2,2.9-0.6l121.3-51.6l105.2,45.2
			l-44.7,19c-3.8,1.6-5.6,6-4,9.8c1.6,3.8,6,5.6,9.8,4l60.9-25.9c2.8-1.2,4.6-3.9,4.6-6.9c0-3-1.8-5.7-4.5-6.9l-108.1-46.5l108.1-46
			c2.8-1.2,4.6-3.9,4.6-6.9c0-3-1.8-5.7-4.5-6.9L259,36.6c-1.9-0.8-4-0.8-5.9,0L97.8,103.3c-3.8,1.6-5.6,6-3.9,9.9
			c1.6,3.8,6,5.6,9.9,3.9L256,51.7l229.4,98.6L256,247.8L26.6,150.2L76,129c3.8-1.6,5.6-6,3.9-9.9c-1.6-3.8-6-5.6-9.9-3.9L4.5,143.4
			c-2.8,1.2-4.5,3.9-4.5,6.9c0,3,1.8,5.7,4.6,6.9l108.1,46L4.5,249.6c-2.8,1.2-4.5,3.9-4.5,6.9c0,3,1.8,5.7,4.6,6.9l108.1,46
			L4.5,355.9c-2.8,1.2-4.5,3.9-4.5,6.9c0,3,1.8,5.7,4.6,6.9l248.5,105.7c0.9,0.4,1.9,0.6,2.9,0.6c1,0,2-0.2,2.9-0.6l38-16.2
			c3.8-1.6,5.6-6,4-9.8c-1.6-3.8-6-5.6-9.8-4L256,460.3L26.6,362.7l105.2-45.2l121.3,51.6c0.9,0.4,1.9,0.6,2.9,0.6
			c1,0,2-0.2,2.9-0.6l121.3-51.6l105.2,45.2l-166.6,70.9c-3.8,1.6-5.6,6-4,9.8c1.6,3.8,6,5.6,9.8,4l182.7-77.7
			c2.8-1.2,4.6-3.9,4.6-6.9C512,359.8,510.2,357.1,507.5,355.9z"/>
	</g>
</g>
</svg>
