<?xml version="1.0" encoding="utf-8"?>
<!-- Generator: Adobe Illustrator 22.1.0, SVG Export Plug-In . SVG Version: 6.00 Build 0)  -->
<svg version="1.1" id="Layer_1" xmlns="http://www.w3.org/2000/svg" xmlns:xlink="http://www.w3.org/1999/xlink" x="0px" y="0px"
	 viewBox="0 0 512 512" style="enable-background:new 0 0 512 512;" xml:space="preserve">
<path d="M256,512c-35.6,0-64.5-28.9-64.5-64.5v-4.4c-7.6-2.6-15-5.7-22.2-9.2l-3.1,3.1c-12.1,12.1-28.3,18.8-45.6,18.8
	S87.1,449.2,75,437c-25.1-25.1-25.1-66.1,0-91.2l3.1-3.1c-3.5-7.2-6.6-14.6-9.2-22.2h-4.4C28.9,320.5,0,291.6,0,256
	s28.9-64.5,64.5-64.5h4.4c2.6-7.6,5.7-15,9.2-22.2l-3.1-3.1c-25.1-25.1-25.1-66.1,0-91.2c12.1-12.1,28.3-18.8,45.6-18.8
	s33.5,6.7,45.6,18.8l3.1,3.1c7.2-3.5,14.6-6.6,22.2-9.2v-4.4C191.5,28.9,220.4,0,256,0s64.5,28.9,64.5,64.5v4.4
	c7.6,2.6,15,5.7,22.2,9.2l3.1-3.1c12.1-12.1,28.3-18.8,45.6-18.8S424.9,62.8,437,75c25.1,25.2,25.1,66.1,0,91.2
	c-5.8,5.8-15.1,5.8-20.8,0c-5.8-5.8-5.8-15.1,0-20.8c13.7-13.7,13.7-35.9,0-49.6c-6.6-6.6-15.4-10.2-24.8-10.2s-18.2,3.6-24.8,10.2
	l-10.8,10.8c-4.7,4.7-11.9,5.7-17.6,2.4c-11.5-6.5-23.8-11.6-36.5-15.1c-6.4-1.8-10.7-7.6-10.7-14.2V64.5c0-19.3-15.7-35-35-35
	s-35,15.7-35,35v15.2c0,6.6-4.4,12.4-10.7,14.2c-12.7,3.6-24.9,8.7-36.5,15.1c-5.8,3.2-13,2.2-17.6-2.4l-10.8-10.8
	c-6.6-6.6-15.4-10.2-24.8-10.2s-18.2,3.6-24.8,10.2c-13.7,13.7-13.7,35.9,0,49.6l10.8,10.8c4.7,4.7,5.7,11.9,2.4,17.6
	c-6.5,11.5-11.6,23.8-15.1,36.5c-1.8,6.4-7.6,10.7-14.2,10.7H64.5c-19.3,0-35,15.7-35,35s15.7,35,35,35h15.2
	c6.6,0,12.4,4.4,14.2,10.7c3.6,12.7,8.7,24.9,15.1,36.5c3.2,5.8,2.2,13-2.4,17.6l-10.8,10.8c-13.7,13.7-13.7,35.9,0,49.6
	c6.6,6.6,15.4,10.2,24.8,10.2s18.2-3.6,24.8-10.2l10.8-10.8c4.7-4.7,11.9-5.7,17.6-2.4c11.5,6.5,23.8,11.6,36.5,15.1
	c6.4,1.8,10.7,7.6,10.7,14.2v15.2c0,19.3,15.7,35,35,35s35-15.7,35-35v-15.2c0-6.6,4.4-12.4,10.7-14.2c12.7-3.6,24.9-8.7,36.5-15.1
	c5.8-3.2,13-2.2,17.6,2.4l10.8,10.8c6.6,6.6,15.4,10.2,24.8,10.2s18.2-3.6,24.8-10.2c13.7-13.7,13.7-35.9,0-49.6l-10.8-10.8
	c-4.7-4.7-5.7-11.9-2.4-17.6c6.5-11.5,11.6-23.8,15.1-36.5c1.8-6.4,7.6-10.7,14.2-10.7h15.2c19.3,0,35-15.7,35-35
	c0-9.6-4.1-19-11.2-25.6c-6-5.5-6.3-14.9-0.7-20.8s14.9-6.3,20.8-0.7C504.5,221,512,238.2,512,256c0,35.6-28.9,64.5-64.5,64.5h-4.4
	c-2.6,7.6-5.7,15-9.2,22.2l3.1,3.1c25.1,25.1,25.1,66.1,0,91.2c-12.1,12.1-28.3,18.8-45.6,18.8s-33.5-6.7-45.6-18.8l-3.1-3.1
	c-7.2,3.5-14.6,6.6-22.2,9.2v4.4C320.5,483.1,291.6,512,256,512z"/>
<path d="M256,388.3c-73,0-132.3-59.4-132.3-132.3S183,123.7,256,123.7S388.3,183,388.3,256S329,388.3,256,388.3z M256,153.2
	c-56.7,0-102.8,46.1-102.8,102.9c0,56.7,46.1,102.8,102.8,102.8S358.8,312.7,358.8,256C358.8,199.3,312.7,153.2,256,153.2z"/>
</svg>
